<svg width="83" height="25" viewBox="0 0 83 25" fill="none" xmlns="http://www.w3.org/2000/svg">
<path d="M11.1399 18.32C9.13454 18.32 7.35321 17.936 5.79587 17.168C4.23854 16.4 3.01187 15.3333 2.11587 13.968C1.24121 12.5813 0.803874 11.0027 0.803874 9.232C0.803874 7.46133 1.24121 5.89333 2.11587 4.528C3.01187 3.16267 4.23854 2.096 5.79587 1.328C7.35321 0.559999 9.13454 0.175999 11.1399 0.175999C13.2732 0.175999 15.0972 0.634666 16.6119 1.552C18.1265 2.46933 19.1719 3.73867 19.7479 5.36L14.1479 8.112C13.7852 7.30133 13.3372 6.71467 12.8039 6.352C12.2919 5.98933 11.7265 5.808 11.1079 5.808C10.5745 5.808 10.0732 5.936 9.60387 6.192C9.15587 6.448 8.79321 6.832 8.51587 7.344C8.25987 7.83467 8.13187 8.464 8.13187 9.232C8.13187 10 8.25987 10.64 8.51587 11.152C8.79321 11.664 9.15587 12.048 9.60387 12.304C10.0732 12.56 10.5745 12.688 11.1079 12.688C11.7265 12.688 12.2919 12.5067 12.8039 12.144C13.3372 11.7813 13.7852 11.1947 14.1479 10.384L19.7479 13.136C19.1719 14.7573 18.1265 16.0267 16.6119 16.944C15.0972 17.8613 13.2732 18.32 11.1399 18.32ZM29.5191 24.528C27.7911 24.528 26.1698 24.3467 24.6551 23.984C23.1405 23.6213 21.8391 23.0773 20.7511 22.352L23.1831 17.424C23.8658 17.9573 24.7298 18.3733 25.7751 18.672C26.8418 18.992 27.8445 19.152 28.7831 19.152C30.2765 19.152 31.3431 18.832 31.9831 18.192C32.6231 17.5733 32.9431 16.6773 32.9431 15.504V14.032L33.2631 8.592L33.2951 3.152V0.495998H40.1751V14.512C40.1751 17.904 39.2365 20.4213 37.3591 22.064C35.4818 23.7067 32.8685 24.528 29.5191 24.528ZM28.1111 17.04C26.6391 17.04 25.2631 16.6987 23.9831 16.016C22.7031 15.312 21.6685 14.3307 20.8791 13.072C20.0898 11.8133 19.6951 10.32 19.6951 8.592C19.6951 6.864 20.0898 5.37067 20.8791 4.112C21.6685 2.85333 22.7031 1.88267 23.9831 1.2C25.2631 0.517332 26.6391 0.175999 28.1111 0.175999C29.6258 0.175999 30.8631 0.474665 31.8231 1.072C32.8045 1.66933 33.5298 2.59733 33.9991 3.856C34.4685 5.09333 34.7031 6.672 34.7031 8.592C34.7031 10.512 34.4685 12.1013 33.9991 13.36C33.5298 14.5973 32.8045 15.5253 31.8231 16.144C30.8631 16.7413 29.6258 17.04 28.1111 17.04ZM30.0311 11.408C30.6071 11.408 31.1191 11.2907 31.5671 11.056C32.0151 10.8213 32.3671 10.4907 32.6231 10.064C32.8791 9.63733 33.0071 9.14667 33.0071 8.592C33.0071 8.016 32.8791 7.52533 32.6231 7.12C32.3671 6.69333 32.0151 6.37333 31.5671 6.16C31.1191 5.92533 30.6071 5.808 30.0311 5.808C29.4765 5.808 28.9645 5.92533 28.4951 6.16C28.0471 6.37333 27.6845 6.69333 27.4071 7.12C27.1511 7.52533 27.0231 8.016 27.0231 8.592C27.0231 9.14667 27.1511 9.63733 27.4071 10.064C27.6845 10.4907 28.0471 10.8213 28.4951 11.056C28.9645 11.2907 29.4765 11.408 30.0311 11.408ZM52.3971 18.32C50.2638 18.32 48.3971 17.9253 46.7971 17.136C45.2185 16.3467 43.9918 15.2693 43.1171 13.904C42.2425 12.5173 41.8051 10.96 41.8051 9.232C41.8051 7.46133 42.2318 5.89333 43.0851 4.528C43.9598 3.16267 45.1438 2.096 46.6371 1.328C48.1518 0.559999 49.8478 0.175999 51.7251 0.175999C53.4531 0.175999 55.0425 0.517332 56.4931 1.2C57.9651 1.88267 59.1385 2.896 60.0131 4.24C60.9091 5.584 61.3571 7.248 61.3571 9.232C61.3571 9.488 61.3465 9.776 61.3251 10.096C61.3038 10.3947 61.2825 10.672 61.2611 10.928H47.7891V7.44H57.4211L54.7011 8.368C54.7011 7.68533 54.5731 7.10933 54.3171 6.64C54.0825 6.14933 53.7518 5.776 53.3251 5.52C52.8985 5.24267 52.3865 5.104 51.7891 5.104C51.1918 5.104 50.6691 5.24267 50.2211 5.52C49.7945 5.776 49.4638 6.14933 49.2291 6.64C48.9945 7.10933 48.8771 7.68533 48.8771 8.368V9.456C48.8771 10.2027 49.0265 10.8427 49.3251 11.376C49.6238 11.9093 50.0505 12.3147 50.6051 12.592C51.1598 12.848 51.8318 12.976 52.6211 12.976C53.4318 12.976 54.0931 12.8693 54.6051 12.656C55.1385 12.4427 55.6931 12.1227 56.2691 11.696L60.0451 15.504C59.1918 16.4213 58.1358 17.1253 56.8771 17.616C55.6398 18.0853 54.1465 18.32 52.3971 18.32ZM75.1594 0.175999C76.5034 0.175999 77.7194 0.453332 78.8074 1.008C79.8954 1.54133 80.7487 2.384 81.3674 3.536C82.0074 4.688 82.3274 6.18133 82.3274 8.016V18H75.0954V9.264C75.0954 8.176 74.9034 7.408 74.5194 6.96C74.1354 6.49067 73.6127 6.256 72.9514 6.256C72.4607 6.256 72.002 6.37333 71.5754 6.608C71.17 6.82133 70.8394 7.184 70.5834 7.696C70.3487 8.208 70.2314 8.90133 70.2314 9.776V18H62.9994V0.495998H69.8794V5.616L68.5034 4.144C69.186 2.82133 70.1034 1.82933 71.2554 1.168C72.4287 0.506666 73.73 0.175999 75.1594 0.175999Z" fill="white"/>
</svg>
